<?xml version="1.0" ?><svg style="enable-background:new 0 0 32 32;" version="1.1" viewBox="0 0 32 32" xml:space="preserve" xmlns="http://www.w3.org/2000/svg" xmlns:xlink="http://www.w3.org/1999/xlink"><g id="Guides"/><g id="_x32_0"/><g id="_x31_9"/><g id="_x31_8"/><g id="_x31_7"/><g id="_x31_6"/><g id="_x31_5"/><g id="_x31_4"/><g id="_x31_3"/><g id="_x31_2"/><g id="_x31_1"/><g id="_x31_0"/><g id="_x30_9"/><g id="_x30_8"/><g id="_x30_7"/><g id="_x30_6"/><g id="_x30_5"/><g id="_x30_4"/><g id="_x30_3"><path d="M16,30c-6.9307,0-11.064-0.9863-11.2363-1.0283c-0.3101-0.0752-0.5649-0.2939-0.6875-0.5884   C3.9541,28.0889,3.98,27.7534,4.145,27.481C5.7666,24.8091,9.98,17.1777,10,13.9937c0.0098-1.4971-1.7363-4.75-2.8389-6.4492   C6.9043,7.1484,6.959,6.6265,7.293,6.293l4-4c0.2007-0.2007,0.4805-0.3071,0.7617-0.2915c0.2837,0.0156,0.5479,0.1514,0.7256,0.373   l2,2.4946C15.5269,5.7646,15.8823,5.8628,16,5.8628s0.4731-0.0981,1.2314-1.0083l1.9883-2.48   c0.1777-0.2217,0.4414-0.3574,0.7256-0.373c0.2822-0.0112,0.5615,0.0903,0.7617,0.2915l4,4   c0.334,0.3335,0.3887,0.8555,0.1318,1.2515C23.7363,9.2437,21.9902,12.4971,22,13.9937   c0.0205,3.1865,4.2334,10.8164,5.8545,13.4873c0.165,0.272,0.1914,0.606,0.0703,0.8999s-0.375,0.5132-0.6836,0.5898   C27.0723,29.0127,23.0176,30,16,30z M6.5791,27.2871C8.291,27.5752,11.5688,28,16,28c4.4727,0,7.7256-0.4224,9.4229-0.71   c-1.625-2.8267-5.4004-9.7671-5.4229-13.2837c-0.0127-2.0859,1.8438-5.3989,2.7305-6.8618L20.082,4.4961l-1.3018,1.624   C18.0977,6.9395,17.1768,7.8628,16,7.8628s-2.0977-0.9233-2.7681-1.728l-1.314-1.6387L9.2695,7.1445   c0.8872,1.4629,2.7437,4.7764,2.7305,6.8618C11.9775,17.5215,8.2056,24.458,6.5791,27.2871z"/><path d="M21,13H11c-0.5522,0-1-0.4478-1-1s0.4478-1,1-1h10c0.5527,0,1,0.4478,1,1S21.5527,13,21,13z"/><path d="M21,16H11c-0.5522,0-1-0.4478-1-1s0.4478-1,1-1h10c0.5527,0,1,0.4478,1,1S21.5527,16,21,16z"/></g><g id="_x30_2"/><g id="_x30_1"/></svg>