<?xml version="1.0" ?><svg viewBox="0 0 64 64" xmlns="http://www.w3.org/2000/svg"><defs><style>.cls-1{fill:#2d88c9;}</style></defs><title/><g data-name="Layer 14" id="Layer_14"><path class="cls-1" d="M32,59a1,1,0,0,1-1-1c0-6-4.12-12-12-12H6a1,1,0,0,1,0-2H19A13.69,13.69,0,0,1,33,58,1,1,0,0,1,32,59Z"/><path class="cls-1" d="M35.5,53a6.69,6.69,0,0,1-4.81-2.1,7.9,7.9,0,0,0-3.5-2,1,1,0,1,1,.49-1.94A9.89,9.89,0,0,1,32,49.38,4.78,4.78,0,0,0,35.5,51c1.44,0,2.14-.74,3-1.68A5.76,5.76,0,0,1,43,47h0a5.74,5.74,0,0,1,4.48,2.32c.88.94,1.58,1.68,3,1.68s2.14-.74,3-1.68A5.74,5.74,0,0,1,58,47a1,1,0,0,1,0,2c-1.44,0-2.14.74-3,1.68a5.49,5.49,0,0,1-9,0c-.88-.94-1.58-1.68-3-1.68h0c-1.44,0-2.14.74-3,1.68A5.74,5.74,0,0,1,35.5,53Z"/><path class="cls-1" d="M37,59c-2.54,0-3.47-1-4.89-2.46-.25-.25-.51-.53-.82-.83a1,1,0,0,1,1.42-1.42c.31.32.59.6.84.87C34.87,56.54,35.32,57,37,57c1.13,0,1.79-.64,2.77-1.68S41.94,53,44,53s3.3,1.21,4.43,2.27S50.27,57,51.5,57s1.63-.59,2.47-1.63S55.9,53,58,53a1,1,0,0,1,0,2c-1.1,0-1.63.59-2.48,1.63S53.6,59,51.5,59s-3.31-1.21-4.44-2.27S45.23,55,44,55s-1.79.64-2.77,1.68S39.06,59,37,59Z"/><path class="cls-1" d="M18,46H10a1,1,0,0,1-.72-.31A1,1,0,0,1,9,45l1-28a1,1,0,0,1,1-1h6a1,1,0,0,1,1,1l1,28a1,1,0,0,1-.28.73A1,1,0,0,1,18,46Zm-7-2H17L16,18H12Z"/><path class="cls-1" d="M19,18H9a1,1,0,0,1-1-1V14a1,1,0,0,1,1-1H19a1,1,0,0,1,1,1v3A1,1,0,0,1,19,18Zm-9-2h8V15H10Z"/><path class="cls-1" d="M17,15H11a1,1,0,0,1-1-1V9a1,1,0,0,1,1-1h6a1,1,0,0,1,1,1v5A1,1,0,0,1,17,15Zm-5-2h4V10H12Z"/><path class="cls-1" d="M16,10H12a1,1,0,0,1-.81-.42,1,1,0,0,1-.14-.9l1-3A1,1,0,0,1,13,5h2a1,1,0,0,1,.95.68l1,3a1,1,0,0,1-.14.9A1,1,0,0,1,16,10ZM13.39,8h1.22l-.33-1h-.56Z"/><rect class="cls-1" height="2" width="2" x="13" y="23"/><rect class="cls-1" height="2" width="2" x="13" y="30"/><rect class="cls-1" height="2" width="2" x="13" y="37"/></g></svg>